<svg width="40" height="40" viewBox="0 0 40 40" fill="none" xmlns="http://www.w3.org/2000/svg">
<path d="M19.9998 15C22.7498 15 24.9998 17.25 24.9998 20C24.9998 22.75 22.7498 25 19.9998 25C17.2498 25 14.9998 22.75 14.9998 20C14.9998 17.25 17.2498 15 19.9998 15ZM19.9998 11.6667C15.3998 11.6667 11.6665 15.4 11.6665 20C11.6665 24.6 15.3998 28.3333 19.9998 28.3333C24.5998 28.3333 28.3332 24.6 28.3332 20C28.3332 15.4 24.5998 11.6667 19.9998 11.6667ZM3.33317 21.6667H6.6665C7.58317 21.6667 8.33317 20.9167 8.33317 20C8.33317 19.0833 7.58317 18.3333 6.6665 18.3333H3.33317C2.4165 18.3333 1.6665 19.0833 1.6665 20C1.6665 20.9167 2.4165 21.6667 3.33317 21.6667ZM33.3332 21.6667H36.6665C37.5832 21.6667 38.3332 20.9167 38.3332 20C38.3332 19.0833 37.5832 18.3333 36.6665 18.3333H33.3332C32.4165 18.3333 31.6665 19.0833 31.6665 20C31.6665 20.9167 32.4165 21.6667 33.3332 21.6667ZM18.3332 3.33333V6.66667C18.3332 7.58333 19.0832 8.33333 19.9998 8.33333C20.9165 8.33333 21.6665 7.58333 21.6665 6.66667V3.33333C21.6665 2.41667 20.9165 1.66667 19.9998 1.66667C19.0832 1.66667 18.3332 2.41667 18.3332 3.33333ZM18.3332 33.3333V36.6667C18.3332 37.5833 19.0832 38.3333 19.9998 38.3333C20.9165 38.3333 21.6665 37.5833 21.6665 36.6667V33.3333C21.6665 32.4167 20.9165 31.6667 19.9998 31.6667C19.0832 31.6667 18.3332 32.4167 18.3332 33.3333ZM9.98317 7.63333C9.33317 6.98333 8.2665 6.98333 7.63317 7.63333C6.98317 8.28333 6.98317 9.35 7.63317 9.98333L9.39984 11.75C10.0498 12.4 11.1165 12.4 11.7498 11.75C12.3832 11.1 12.3998 10.0333 11.7498 9.4L9.98317 7.63333ZM30.5998 28.25C29.9498 27.6 28.8832 27.6 28.2498 28.25C27.5998 28.9 27.5998 29.9667 28.2498 30.6L30.0165 32.3667C30.6665 33.0167 31.7332 33.0167 32.3665 32.3667C33.0165 31.7167 33.0165 30.65 32.3665 30.0167L30.5998 28.25ZM32.3665 9.98333C33.0165 9.33333 33.0165 8.26667 32.3665 7.63333C31.7165 6.98333 30.6498 6.98333 30.0165 7.63333L28.2498 9.4C27.5998 10.05 27.5998 11.1167 28.2498 11.75C28.8998 12.3833 29.9665 12.4 30.5998 11.75L32.3665 9.98333ZM11.7498 30.6C12.3998 29.95 12.3998 28.8833 11.7498 28.25C11.0998 27.6 10.0332 27.6 9.39984 28.25L7.63317 30.0167C6.98317 30.6667 6.98317 31.7333 7.63317 32.3667C8.28317 33 9.34984 33.0167 9.98317 32.3667L11.7498 30.6Z" fill="black"/>
</svg>
